<?xml version="1.0" encoding="utf-8"?>
<!-- Generator: Adobe Illustrator 23.0.1, SVG Export Plug-In . SVG Version: 6.00 Build 0)  -->
<svg version="1.1" id="Layer_1" xmlns="http://www.w3.org/2000/svg" xmlns:xlink="http://www.w3.org/1999/xlink" x="0px" y="0px"
	 viewBox="0 0 5.7 5.7" style="enable-background:new 0 0 5.7 5.7;" xml:space="preserve">
<g>
	<path d="M2.5,0.5v1.6c0,0.1,0,0.2-0.1,0.3C2.3,2.5,2.2,2.5,2,2.5H0.5C0.2,2.5,0,2.3,0,2V0.5C0,0.2,0.2,0,0.5,0H2
		C2.3,0,2.5,0.2,2.5,0.5z"/>
	<path d="M2.5,3.6v1.6c0,0.1,0,0.2-0.1,0.3C2.3,5.6,2.2,5.7,2,5.7H0.5C0.2,5.7,0,5.5,0,5.2V3.6c0-0.3,0.2-0.5,0.5-0.5H2
		C2.3,3.2,2.5,3.4,2.5,3.6z"/>
	<path d="M5.7,0.5V2c0,0.3-0.2,0.5-0.5,0.5H3.6c-0.3,0-0.5-0.2-0.5-0.5V0.5C3.2,0.2,3.4,0,3.6,0h1.6C5.5,0,5.7,0.2,5.7,0.5z"/>
	<path d="M5.7,3.4c0,0.1-0.1,0.2-0.2,0.2H3.4c-0.1,0-0.2-0.1-0.2-0.2s0.1-0.2,0.2-0.2h2.1C5.6,3.2,5.7,3.2,5.7,3.4z"/>
	<path d="M5.7,4.4c0,0.1-0.1,0.2-0.2,0.2H4.4c-0.1,0-0.2-0.1-0.2-0.2s0.1-0.2,0.2-0.2h1.1C5.6,4.2,5.7,4.3,5.7,4.4z"/>
	<path d="M5.7,5.5c0,0.1-0.1,0.2-0.2,0.2H3.4c-0.1,0-0.2-0.1-0.2-0.2c0-0.1,0.1-0.2,0.2-0.2h2.1C5.6,5.3,5.7,5.4,5.7,5.5z"/>
</g>
</svg>
