<!DOCTYPE svg PUBLIC "-//W3C//DTD SVG 1.1//EN" "http://www.w3.org/Graphics/SVG/1.1/DTD/svg11.dtd">
<!-- Uploaded to: SVG Repo, www.svgrepo.com, Transformed by: SVG Repo Mixer Tools -->
<svg width="256px" height="256px" viewBox="-4.8 -4.8 57.60 57.60" fill="none" xmlns="http://www.w3.org/2000/svg">
<g id="SVGRepo_bgCarrier" stroke-width="0" transform="translate(0,0), scale(1)">
<path transform="translate(-4.8, -4.8), scale(1.7999999999999998)" d="M16,29.69275321419302C18.307588895936497,30.10589427043899,20.245053776246284,28.003076088373945,22.40794034812011,27.098878254814636C24.910123684726074,26.0528369221121,28.923678983204134,26.523188066828755,29.75600741534688,23.94203458422501C30.67092126652873,21.104773495857636,26.63007402266832,18.91092404348064,25.986926254473232,16C25.534795813865976,13.95363144297823,27.197410165389954,11.876148122225082,26.643564002825073,9.854935457831939C26.034546815443544,7.632381010098563,25.01166731131159,4.814660103916253,22.77258374679246,4.269540852040279C20.332760341983118,3.6755501988040766,18.504834819698058,7.086587995697763,16,7.263691549630542C13.775251549960897,7.420991685356002,11.844914892823809,4.401143567036841,9.758662331457204,5.189686050890389C7.777260817637276,5.938597903727266,8.167121496589495,9.057232637686992,6.855107230002634,10.720193697531752C5.234615493695628,12.774145947829455,1.3217190922753397,13.385377483681296,1.2297277279982453,15.999999999999996C1.1391088601843644,18.575612765952613,4.601009324199986,19.730462618143584,6.4758806467195775,21.498752872410567C7.850080119624529,22.794833038643553,9.360731339100456,23.787360691330324,10.792686356133533,25.01933180212334C12.591353481426438,26.566800758854395,13.664403783513539,29.274597844515824,16,29.69275321419302" fill="#66baff" strokewidth="0"/>
</g>
<g id="SVGRepo_tracerCarrier" stroke-linecap="round" stroke-linejoin="round" stroke="#CCCCCC" stroke-width="0.192"/>
<g id="SVGRepo_iconCarrier"> <rect width="48" height="48" fill="white" fill-opacity="0.01"/> <rect x="4" y="4" width="16" height="16" rx="2" fill="#2185D5" stroke="#323643" stroke-width="1.152" stroke-linejoin="round"/> <rect x="4" y="28" width="16" height="16" rx="2" fill="#2185D5" stroke="#323643" stroke-width="1.152" stroke-linejoin="round"/> <rect x="28" y="4" width="16" height="16" rx="2" fill="#2185D5" stroke="#323643" stroke-width="1.152" stroke-linejoin="round"/> <path d="M28 28H44" stroke="#323643" stroke-width="1.152" stroke-linecap="round" stroke-linejoin="round"/> <path d="M36 36H44" stroke="#323643" stroke-width="1.152" stroke-linecap="round" stroke-linejoin="round"/> <path d="M28 44H44" stroke="#323643" stroke-width="1.152" stroke-linecap="round" stroke-linejoin="round"/> </g>
</svg>