<?xml version="1.0" encoding="utf-8"?>
<!-- Generator: Adobe Illustrator 23.0.1, SVG Export Plug-In . SVG Version: 6.00 Build 0)  -->
<svg version="1.1" id="Layer_1" xmlns="http://www.w3.org/2000/svg" xmlns:xlink="http://www.w3.org/1999/xlink" x="0px" y="0px"
	 viewBox="0 0 256 256" style="enable-background:new 0 0 256 256;" xml:space="preserve">
<circle cx="128" cy="128" r="41.7"/>
<g>
	<path d="M128,0c-6.7,0-12.2,4.6-12.2,10.3V54c0,5.7,5.5,10.3,12.2,10.3c6.7,0,12.2-4.6,12.2-10.3V10.3C140.2,4.6,134.7,0,128,0z"/>
</g>
<g>
	<path d="M27.9,48.2c-4.2,5.3-4,12.4,0.5,16l34.1,27.2c4.5,3.6,11.5,2.2,15.7-3.1c4.2-5.3,4-12.4-0.5-16L43.6,45.1
		C39.2,41.5,32.1,42.9,27.9,48.2z"/>
</g>
<g>
	<path d="M3.2,156.5c1.5,6.6,7.2,10.9,12.8,9.6l42.5-9.7c5.6-1.3,8.9-7.6,7.4-14.2c-1.5-6.6-7.2-10.9-12.8-9.6l-42.5,9.7
		C5,143.6,1.7,149.9,3.2,156.5z"/>
</g>
<g>
	<path d="M72.5,243.3c6.1,2.9,13,1.1,15.5-4l18.9-39.3c2.5-5.1-0.4-11.7-6.5-14.6c-6.1-2.9-13-1.1-15.5,4L66,228.7
		C63.5,233.9,66.4,240.4,72.5,243.3z"/>
</g>
<g>
	<path d="M183.5,243.3c6.1-2.9,9-9.5,6.5-14.6l-18.9-39.3c-2.5-5.1-9.4-6.9-15.5-4c-6.1,2.9-9,9.5-6.5,14.6l18.9,39.3
		C170.5,244.4,177.5,246.2,183.5,243.3z"/>
</g>
<g>
	<path d="M252.8,156.5c1.5-6.6-1.8-12.9-7.4-14.2l-42.5-9.7c-5.6-1.3-11.3,3-12.8,9.6c-1.5,6.6,1.8,12.9,7.4,14.2l42.5,9.7
		C245.6,167.3,251.3,163,252.8,156.5z"/>
</g>
<g>
	<path d="M228.1,48.2c-4.2-5.3-11.2-6.6-15.7-3.1l-34.1,27.2c-4.5,3.6-4.7,10.7-0.5,16c4.2,5.3,11.2,6.6,15.7,3.1l34.1-27.2
		C232.1,60.6,232.3,53.5,228.1,48.2z"/>
</g>
</svg>
